<?xml version="1.0" standalone="no"?>
<!DOCTYPE svg PUBLIC "-//W3C//DTD SVG 20010904//EN"
 "http://www.w3.org/TR/2001/REC-SVG-20010904/DTD/svg10.dtd">
<svg version="1.0" xmlns="http://www.w3.org/2000/svg"
 width="1200.000000pt" height="1200.000000pt" viewBox="0 0 1200.000000 1200.000000"
 preserveAspectRatio="xMidYMid meet">
<metadata>
Created by potrace 1.10, written by Peter Selinger 2001-2011
</metadata>
<g transform="translate(0.000000,1200.000000) scale(0.100000,-0.100000)"
fill="#5f3a3a" stroke="none">
<path d="M6010 11719 c-70 -12 -140 -54 -162 -99 -35 -70 -19 -170 38 -230 31
-33 33 -42 49 -165 18 -136 16 -187 -12 -330 -18 -95 -35 -115 -117 -135 -38
-9 -61 -20 -68 -34 -14 -26 -28 -36 -53 -36 -11 0 -30 -7 -42 -15 l-21 -15 26
-30 c22 -25 34 -30 70 -30 36 0 43 -3 38 -16 -3 -9 -6 -18 -6 -20 0 -2 -13 -4
-29 -4 -46 0 -49 -20 -8 -53 35 -27 37 -32 37 -87 0 -33 -4 -61 -9 -64 -19
-12 -181 -39 -242 -41 -36 -1 -71 -5 -77 -9 -6 -3 -28 -6 -49 -4 -21 1 -54 -1
-73 -5 l-35 -8 39 36 c22 19 47 35 57 35 10 0 30 11 45 25 l26 24 -23 38 c-12
21 -34 52 -48 68 -15 17 -42 50 -61 75 -51 67 -180 199 -200 205 -10 3 -33 20
-52 38 -33 31 -34 35 -38 122 -5 126 -5 136 4 170 7 27 6 28 -7 13 -8 -10 -17
-18 -21 -18 -16 0 -45 -46 -40 -63 4 -11 -1 -24 -12 -31 -26 -19 -45 -154 -29
-203 6 -19 -8 -38 -94 -125 -55 -57 -113 -122 -128 -145 -15 -24 -33 -43 -40
-43 -7 0 -13 -7 -13 -14 0 -15 -54 -103 -74 -121 -7 -5 -22 -27 -35 -47 -18
-30 -29 -38 -53 -38 -21 0 -31 -6 -35 -20 -6 -23 -23 -26 -41 -8 -9 9 -12 7
-12 -10 0 -14 -6 -22 -16 -22 -9 0 -23 -8 -30 -17 -13 -17 -15 -17 -24 -1 -8
13 -21 15 -67 11 -49 -4 -62 -2 -85 17 -33 26 -35 45 -7 60 29 16 23 65 -8 64
-28 -1 -29 11 -3 61 12 22 24 60 27 85 4 27 15 53 30 68 12 12 23 29 23 36 0
39 25 79 57 92 19 8 36 21 40 30 3 9 12 12 24 9 10 -4 39 3 65 14 26 12 52 21
59 21 7 0 18 7 25 15 7 9 19 14 26 11 6 -2 47 13 91 34 73 37 101 38 73 5 -11
-13 -7 -15 23 -15 39 0 67 21 67 51 0 12 -7 19 -20 19 -30 0 -24 15 15 41 31
21 155 167 155 183 0 3 23 28 50 55 49 48 62 78 38 85 -57 18 -67 16 -103 -19
-19 -20 -35 -42 -35 -50 0 -7 -4 -17 -10 -20 -5 -3 -10 -15 -10 -26 0 -29 -34
-20 -38 9 -5 34 -27 20 -27 -17 0 -26 -6 -36 -27 -47 -21 -11 -28 -22 -28 -45
0 -19 -6 -32 -17 -36 -10 -4 -28 -16 -39 -27 -43 -42 -114 -89 -169 -113 -22
-9 -69 -32 -104 -50 -35 -18 -72 -33 -82 -33 -10 0 -21 -5 -24 -11 -7 -11
-133 -6 -190 7 -33 8 -98 44 -91 51 6 7 137 33 166 33 14 0 34 7 44 15 11 8
32 15 47 15 15 0 31 5 34 10 3 6 24 10 45 10 29 0 42 5 50 20 6 11 26 22 48
26 57 11 104 33 128 61 13 16 33 26 52 27 24 1 40 13 73 54 23 28 46 52 51 52
4 0 8 14 8 31 0 17 11 45 25 63 14 18 25 44 25 58 0 17 8 28 25 36 14 6 25 16
25 22 0 19 -28 77 -40 85 -17 10 -60 -15 -60 -36 0 -9 -18 -33 -40 -53 -33
-30 -45 -35 -68 -30 -15 4 -24 3 -20 -1 16 -17 -86 -132 -122 -137 -14 -2 -24
-9 -22 -17 5 -23 -45 -78 -120 -130 -39 -28 -77 -51 -84 -51 -6 0 -25 -7 -40
-15 -16 -8 -37 -15 -47 -15 -10 0 -30 -11 -45 -25 -15 -14 -34 -25 -42 -26
-98 -5 -194 -21 -210 -34 -8 -7 -26 -15 -39 -17 -17 -2 -32 -18 -52 -57 -16
-30 -29 -61 -29 -70 0 -10 -7 -26 -15 -37 -8 -10 -15 -35 -15 -55 0 -23 -6
-39 -15 -43 -9 -3 -15 -18 -15 -35 0 -16 -6 -36 -13 -43 -7 -7 -22 -40 -33
-73 -11 -33 -34 -80 -50 -104 -16 -24 -42 -65 -59 -91 -16 -26 -42 -65 -56
-86 -48 -73 -171 -324 -185 -378 -3 -14 -10 -29 -15 -32 -5 -3 -9 -18 -9 -33
0 -15 -7 -36 -15 -47 -8 -10 -15 -35 -15 -55 0 -20 -6 -54 -14 -75 -29 -85
-28 -412 3 -559 5 -27 15 -81 22 -120 10 -65 69 -227 90 -249 5 -6 9 -19 9
-29 0 -11 23 -58 52 -106 59 -97 231 -356 257 -386 10 -11 28 -42 41 -68 26
-55 44 -57 48 -4 2 20 7 37 12 37 9 0 5 -165 -5 -180 -3 -6 -12 -10 -20 -10
-24 0 -45 -42 -45 -91 0 -93 -6 -103 -68 -122 -32 -9 -88 -21 -127 -27 -38 -5
-90 -17 -114 -25 -24 -9 -74 -18 -110 -20 -84 -4 -121 -14 -121 -31 0 -7 8
-17 18 -23 21 -11 138 -42 247 -66 44 -10 85 -21 90 -26 6 -4 35 -13 65 -18
30 -5 75 -15 100 -20 25 -6 72 -10 105 -11 33 0 79 -5 102 -10 22 -5 76 -12
119 -14 53 -3 81 -9 89 -19 9 -13 18 -65 56 -332 5 -38 14 -121 19 -184 6 -62
14 -132 19 -155 5 -22 17 -95 26 -161 9 -66 20 -142 25 -170 5 -27 11 -77 14
-110 6 -59 25 -171 51 -310 8 -38 25 -142 39 -230 15 -88 33 -196 41 -240 8
-44 19 -107 24 -140 16 -103 32 -206 47 -305 8 -52 21 -129 29 -170 8 -41 21
-124 30 -185 9 -60 23 -139 30 -175 21 -97 65 -402 75 -510 4 -52 13 -117 19
-145 18 -91 41 -277 56 -465 21 -261 45 -439 61 -455 8 -7 46 -18 86 -25 103
-16 105 -17 112 -50 4 -22 11 -30 26 -30 35 0 58 -18 65 -52 11 -50 29 -80 86
-142 76 -84 95 -90 319 -115 107 -11 213 -21 235 -21 45 0 71 -12 61 -29 -4
-6 16 -40 43 -76 67 -87 78 -127 62 -211 -12 -56 -11 -67 3 -89 41 -62 -4
-186 -97 -272 -32 -28 -57 -57 -57 -63 0 -36 58 -105 124 -149 l71 -47 0 -66
c0 -50 4 -71 19 -87 16 -18 18 -30 12 -93 -4 -40 -9 -120 -12 -178 -2 -58 -9
-148 -15 -201 -13 -104 -8 -286 9 -359 6 -25 18 -76 27 -113 28 -120 88 -243
127 -263 15 -8 29 -14 32 -14 2 0 22 26 43 58 44 63 59 100 102 247 27 95 29
114 36 361 5 192 4 295 -6 384 -11 101 -11 127 1 153 15 36 16 62 5 123 l-7
42 71 37 c80 42 112 70 136 122 22 45 14 60 -45 82 -41 15 -47 22 -88 106 -47
96 -51 132 -21 202 12 29 11 36 -4 62 -34 58 -13 129 64 222 21 25 41 57 44
72 4 15 11 29 15 32 11 7 258 35 308 35 36 0 49 6 89 42 45 42 72 88 103 178
10 30 22 46 35 48 30 6 45 22 45 48 0 30 4 32 84 38 74 6 96 17 96 49 0 11 7
59 15 106 23 137 45 321 45 382 0 31 5 81 11 110 6 30 14 90 19 134 4 44 13
112 19 150 31 202 41 286 41 340 0 33 6 98 14 145 26 150 46 312 71 565 8 88
20 173 25 189 6 16 10 48 10 72 0 23 6 73 14 111 8 37 17 106 20 153 4 47 11
114 16 150 27 189 42 294 55 375 23 142 45 327 45 365 0 19 6 71 14 115 39
213 46 263 46 303 0 24 7 89 15 145 19 123 39 257 60 392 9 55 19 129 23 165
l7 65 49 3 c27 2 59 10 70 18 41 29 122 13 259 -51 73 -34 162 -43 214 -22 25
10 95 17 208 22 174 8 233 18 205 35 -8 6 -28 10 -45 10 -16 0 -63 8 -104 18
l-73 18 -17 50 c-21 60 -54 80 -150 89 -36 3 -76 10 -89 16 -54 22 -257 39
-582 49 -189 6 -348 14 -353 19 -5 5 -3 12 3 16 9 6 6 13 -10 25 -22 16 -22
17 26 32 l48 15 -37 7 c-45 8 -54 21 -25 37 12 7 28 18 34 24 7 7 54 15 106
20 120 10 162 9 166 -4 8 -23 22 -10 16 14 -5 19 -2 25 9 25 9 0 19 -4 22 -10
6 -10 45 -14 45 -4 0 6 -51 76 -61 84 -4 3 -30 44 -58 93 -54 91 -102 196
-128 282 -31 101 -71 125 -205 125 -70 0 -113 17 -113 43 0 9 -4 17 -10 16 -5
0 -9 -8 -7 -17 2 -16 -20 -17 -295 -15 -235 1 -311 5 -358 17 -70 19 -95 20
-95 5 0 -8 -12 -9 -37 -3 -21 4 -89 8 -151 9 -86 1 -115 4 -122 15 -5 8 -6 18
-4 22 9 14 81 9 94 -6 14 -17 156 -15 202 3 32 12 273 16 334 6 25 -5 56 -3
78 5 29 9 40 9 52 -1 12 -10 18 -8 31 10 16 23 37 24 87 5 15 -6 18 -4 13 9
-8 20 12 35 23 17 4 -7 23 -14 41 -16 25 -2 39 3 51 19 l18 22 0 -22 c0 -49
23 -71 33 -32 5 20 -9 79 -40 164 -22 61 -101 193 -153 257 -52 62 -134 132
-191 162 -35 18 -38 18 -54 3 -17 -17 -45 -11 -60 13 -3 6 -29 10 -56 10 -57
0 -116 21 -125 45 -6 15 4 29 49 73 25 24 21 55 -13 87 -16 16 -30 34 -30 41
0 21 -51 54 -84 54 -55 0 -77 11 -74 34 2 16 22 27 85 51 104 39 111 45 95 88
-7 18 -12 52 -12 74 0 27 -6 46 -19 57 -11 10 -21 35 -24 59 -2 23 -12 83 -22
132 -24 125 -15 263 25 415 17 63 35 136 39 163 4 26 13 53 19 59 7 7 12 24
12 40 0 33 -20 45 -109 68 l-65 16 -12 54 c-7 30 -20 102 -29 159 -16 98 -16
111 1 219 9 64 23 127 31 141 7 14 13 34 13 45 0 10 13 33 29 51 36 41 47 98
30 155 -19 64 -51 81 -172 91 -56 4 -128 15 -160 24 -32 8 -61 14 -65 14 -4
-1 -32 -5 -62 -10z m158 -123 c5 -23 -39 -41 -67 -27 -28 16 -28 49 2 53 31 5
61 -6 65 -26z m196 18 c20 -19 20 -28 1 -44 -20 -17 -62 -4 -70 21 -12 37 39
53 69 23z m-80 -466 c10 -40 7 -196 -5 -204 -15 -9 -29 14 -29 48 0 15 -4 30
-10 33 -14 9 -12 45 6 98 17 52 29 59 38 25z m-128 -10 c16 -25 -7 -148 -28
-148 -8 0 -28 66 -28 95 0 39 12 65 31 65 10 0 21 -5 25 -12z m-1036 -418 c12
-8 9 -10 -12 -10 -16 0 -28 5 -28 10 0 13 20 13 40 0z m1025 0 c4 -6 -10 -10
-35 -10 -25 0 -39 4 -35 10 3 6 19 10 35 10 16 0 32 -4 35 -10z m280 1 c3 -5
-4 -13 -16 -16 -26 -9 -72 2 -64 15 8 13 72 13 80 1z m-1221 -72 c-7 -11 -31
-1 -38 16 -4 11 0 12 19 3 13 -6 22 -15 19 -19z m952 -460 c13 -25 14 -47 9
-110 -8 -89 -24 -120 -52 -103 -49 30 -36 244 14 244 7 0 20 -14 29 -31z m181
-6 c14 -21 18 -47 18 -115 -1 -104 -16 -132 -40 -75 -17 41 -21 217 -5 217 5
0 18 -12 27 -27z m-565 -30 c2 -18 12 -32 27 -38 22 -10 23 -13 17 -90 -8
-118 -27 -192 -54 -211 -27 -19 -41 -11 -21 12 17 21 48 138 49 185 0 40 -21
76 -39 65 -15 -10 -127 -20 -228 -20 -98 -1 -123 13 -83 46 l25 20 14 -21 c15
-23 36 -29 28 -7 -7 18 12 36 38 36 11 0 56 11 100 25 108 32 123 32 127 -2z
m-12 -420 c0 -5 -12 -21 -26 -37 -20 -22 -28 -26 -34 -16 -11 18 17 60 41 60
11 0 19 -3 19 -7z m373 -44 c-8 -8 -16 -8 -30 0 -16 9 -14 10 12 11 21 0 26
-3 18 -11z m277 1 c0 -5 -11 -10 -24 -10 -14 0 -28 5 -31 10 -4 6 7 10 24 10
17 0 31 -4 31 -10z m-63 -185 c3 -9 3 -19 0 -22 -9 -9 -68 18 -61 28 9 15 54
10 61 -6z m55 -81 c12 -8 -35 -54 -55 -54 -17 0 -56 35 -57 52 0 16 87 17 112
2z m-774 -75 c12 -40 12 -43 -14 -70 -29 -30 -69 -38 -103 -19 -14 7 -23 5
-36 -10 -11 -12 -31 -20 -51 -20 -18 0 -36 -5 -40 -11 -4 -7 -24 -9 -56 -5
-33 5 -55 3 -64 -5 -8 -6 -17 -9 -21 -5 -9 8 27 46 44 46 8 0 26 9 41 20 25
18 63 26 229 46 41 5 42 5 36 40 -8 50 19 45 35 -7z m120 -56 c2 -7 -2 -13
-10 -13 -7 0 -24 -9 -38 -20 -25 -19 -60 -27 -60 -12 1 12 34 49 50 55 23 9
53 3 58 -10z m-238 -73 c0 -5 -9 -10 -20 -10 -11 0 -20 5 -20 10 0 6 9 10 20
10 11 0 20 -4 20 -10z m-960 -578 c0 -20 -28 -45 -44 -39 -23 9 -20 27 4 27
11 0 20 5 20 10 0 6 5 10 10 10 6 0 10 -4 10 -8z m1535 -41 c8 -14 -33 -34
-53 -26 -15 6 -15 8 2 21 23 16 42 18 51 5z m-85 -16 c0 -20 -28 -31 -43 -16
-6 6 -19 11 -30 11 -10 0 -15 5 -12 10 3 6 24 10 46 10 28 0 39 -4 39 -15z
m-1425 -18 c-4 -15 -1 -28 9 -36 9 -8 16 -20 16 -28 0 -11 -4 -11 -20 -3 -11
6 -25 8 -30 5 -9 -5 -30 33 -30 53 0 7 37 28 53 31 4 0 5 -9 2 -22z m-665
-466 c0 -6 -5 -13 -10 -16 -14 -9 -52 4 -45 16 8 12 55 12 55 0z m10 -85 c0
-41 -14 -61 -35 -52 -12 4 -18 0 -22 -14 -11 -41 -23 -18 -23 44 0 63 1 65 28
68 37 5 52 -8 52 -46z m363 -178 c12 -6 27 -17 34 -23 8 -9 26 -10 65 -3 29 4
68 6 87 2 39 -6 91 -50 91 -76 0 -25 -33 -31 -127 -23 -60 5 -93 3 -115 -6
-26 -11 -32 -10 -42 3 -7 9 -28 18 -47 20 -32 3 -34 5 -34 38 0 33 2 35 32 34
30 -2 32 0 27 22 -7 27 -2 29 29 12z m3645 -244 c36 -10 25 -24 -18 -24 -38 0
-49 8 -33 23 8 8 21 9 51 1z m-173 -13 c3 -5 1 -12 -4 -15 -12 -8 -41 3 -41
15 0 12 37 12 45 0z m785 -10 c0 -19 -23 -23 -88 -15 -57 6 -62 9 -37 15 45
10 125 10 125 0z m-180 -5 c0 -9 -39 -13 -51 -5 -10 6 -4 9 19 9 17 0 32 -2
32 -4z m-3950 -311 c14 -8 34 -14 45 -15 28 0 45 -53 56 -170 18 -192 41 -386
51 -430 5 -25 14 -79 18 -120 30 -251 74 -550 100 -678 11 -57 20 -114 20
-126 0 -28 29 -71 30 -44 0 42 50 30 50 -12 0 -25 -4 -29 -27 -27 -22 2 -29
-3 -31 -22 -5 -34 14 -50 33 -25 25 32 35 -1 33 -111 0 -72 4 -110 16 -137 10
-24 16 -65 16 -111 0 -44 6 -90 15 -110 8 -20 15 -62 15 -94 0 -33 8 -80 19
-108 15 -39 18 -72 16 -150 -2 -120 0 -132 26 -109 17 15 18 15 25 -11 4 -14
1 -38 -5 -51 -14 -32 -14 -154 0 -191 20 -49 37 -168 44 -305 4 -73 14 -151
21 -173 8 -22 14 -67 14 -99 0 -33 4 -73 9 -90 31 -103 41 -192 44 -371 l2
-190 -27 -3 c-14 -2 -32 -10 -38 -18 -7 -8 -23 -14 -36 -14 -28 0 -40 34 -55
159 -5 46 -11 87 -14 91 -2 3 -9 53 -14 111 -6 57 -15 124 -21 149 -5 25 -17
90 -25 145 -9 55 -23 137 -30 182 -8 45 -15 105 -15 133 0 29 -6 82 -14 119
-18 78 -39 219 -62 391 -15 122 -30 224 -59 405 -8 50 -21 142 -29 205 -24
182 -37 271 -46 325 -35 200 -53 325 -60 420 -5 61 -13 134 -19 164 -6 29 -11
86 -11 126 0 51 -8 96 -26 151 -14 44 -29 121 -34 174 -4 52 -13 122 -19 155
-10 61 -25 158 -43 295 -5 41 -9 89 -9 105 1 17 1 51 1 78 0 51 8 56 50 32z
m2712 -15 c195 -1 350 -6 360 -11 15 -8 17 -19 12 -72 -3 -34 -11 -100 -19
-147 -8 -47 -20 -139 -25 -205 -6 -66 -14 -147 -19 -180 -5 -33 -14 -98 -20
-145 -7 -47 -19 -120 -27 -163 -8 -42 -14 -104 -14 -136 0 -32 -5 -83 -10
-112 -6 -30 -15 -90 -20 -134 -11 -94 -25 -195 -45 -320 -8 -49 -20 -142 -26
-205 -22 -224 -24 -238 -59 -455 -7 -38 -15 -122 -19 -185 -4 -64 -11 -122
-15 -129 -5 -7 -12 -52 -16 -99 -9 -91 -21 -173 -46 -307 -8 -44 -14 -110 -14
-146 0 -37 -6 -100 -14 -140 -28 -149 -76 -519 -76 -587 0 -60 -27 -213 -39
-225 -11 -11 -6 -11 -223 -8 -86 1 -169 6 -184 10 -27 7 -27 8 -27 86 0 44 5
258 11 475 9 296 16 1054 12 1208 0 19 -18 14 -68 -20 -49 -35 -196 -86 -272
-97 l-45 -6 -7 -150 c-3 -82 -11 -249 -17 -370 -6 -121 -11 -301 -11 -400 0
-99 -5 -259 -11 -355 -6 -96 -12 -210 -13 -253 0 -42 -5 -78 -11 -80 -14 -3
-37 612 -55 1473 -5 245 -11 462 -15 482 -3 20 -10 288 -15 595 -5 307 -15
663 -21 790 -5 128 -7 237 -4 243 8 14 500 13 526 0 30 -17 49 -64 49 -125 0
-30 4 -55 9 -55 11 0 17 29 26 117 4 34 12 67 19 72 6 5 34 11 61 13 45 3 50
6 53 28 5 54 6 54 -300 55 -282 2 -346 9 -349 38 -3 35 4 81 20 121 26 70 62
84 201 81 102 -2 112 -5 145 -29 31 -24 35 -33 35 -71 0 -52 8 -75 25 -75 15
0 25 22 25 58 0 15 8 53 18 85 14 44 25 62 46 73 36 18 34 19 38 -13 2 -21 9
-29 28 -32 14 -1 28 -8 33 -15 10 -15 -2 -117 -16 -134 -8 -10 -7 -16 4 -23
37 -23 41 -8 45 157 2 80 6 149 10 155 3 6 12 8 20 5 8 -3 168 -6 356 -6z
m-1727 -20 l25 -9 2 -207 3 -207 58 -12 c31 -6 62 -16 67 -21 9 -9 27 -859 35
-1684 9 -1045 16 -1592 20 -1743 3 -95 1 -176 -4 -186 -8 -15 -29 -17 -171
-19 -94 -1 -170 3 -181 9 -13 6 -19 21 -19 42 0 18 -7 57 -15 87 -8 30 -15 72
-15 92 0 20 -6 79 -14 130 -18 116 -44 322 -51 408 -8 97 -32 306 -54 470 -10
80 -22 190 -26 245 -3 55 -10 125 -15 155 -5 30 -12 87 -16 125 -9 99 -21 191
-50 371 -8 50 -14 122 -14 160 0 38 -5 89 -11 114 -6 25 -14 88 -19 140 -8 93
-21 197 -40 332 -6 37 -10 101 -10 144 0 42 -6 122 -14 178 -8 55 -22 173 -30
261 -9 88 -24 215 -32 282 -9 68 -14 129 -11 137 3 8 26 24 51 37 25 12 81 54
123 92 43 38 86 72 96 76 28 10 305 11 332 1z m-641 -1453 c-3 -9 -10 -15 -15
-12 -11 7 -12 59 -2 95 6 22 8 19 15 -20 4 -25 5 -53 2 -63z m1656 -2583 c0
-8 -4 -14 -10 -14 -5 0 -10 9 -10 21 0 11 5 17 10 14 6 -3 10 -13 10 -21z
m-195 -1735 c10 -16 -1 -22 -26 -14 -17 6 -19 9 -8 16 19 12 26 11 34 -2z m-5
-138 c10 -145 10 -221 0 -245 -19 -51 -32 -15 -42 120 -7 97 -6 129 3 135 13
8 39 1 39 -10z m-115 -11 c8 -13 -3 -50 -15 -50 -12 0 -23 37 -15 50 3 5 10
10 15 10 5 0 12 -5 15 -10z m-2 -105 c-8 -22 -22 -18 -16 5 3 11 9 17 14 15 4
-3 6 -12 2 -20z"/>
<path d="M6237 7063 c-4 -3 -7 -13 -7 -21 0 -9 -7 -23 -16 -33 -12 -13 -13
-22 -5 -36 10 -17 11 -17 17 5 8 26 12 27 36 6 28 -26 33 6 8 50 -24 39 -24
39 -33 29z"/>
<path d="M6646 7038 c-11 -34 -15 -108 -6 -108 6 0 10 5 10 11 0 7 7 17 15 23
22 17 24 79 2 84 -9 2 -19 -2 -21 -10z"/>
<path d="M4820 11260 c0 -11 5 -20 10 -20 6 0 10 9 10 20 0 11 -4 20 -10 20
-5 0 -10 -9 -10 -20z"/>
<path d="M4582 10991 c4 -13 18 -16 19 -4 0 4 -5 9 -11 12 -7 2 -11 -2 -8 -8z"/>
<path d="M5154 10955 c-8 -20 22 -44 54 -45 31 0 24 20 -16 43 -29 17 -32 17
-38 2z"/>
<path d="M5507 10904 c-9 -10 78 -40 142 -50 35 -5 43 -4 39 7 -2 8 -16 20
-30 27 -32 15 -140 27 -151 16z"/>
<path d="M5365 10841 c-3 -6 -17 -11 -31 -11 -13 0 -24 -5 -24 -10 0 -16 30
-24 43 -11 6 6 22 11 35 11 14 0 22 5 20 13 -6 16 -34 21 -43 8z"/>
<path d="M4584 10789 c-3 -6 -1 -16 5 -22 9 -9 14 -8 21 3 5 8 10 18 10 23 0
11 -28 8 -36 -4z"/>
<path d="M4636 10751 c-9 -14 5 -42 18 -38 15 5 14 39 -1 44 -6 2 -14 0 -17
-6z"/>
<path d="M5545 10714 c-19 -19 -19 -30 -1 -37 13 -5 46 21 46 35 0 14 -31 16
-45 2z"/>
<path d="M4560 10705 c0 -3 4 -13 9 -23 5 -9 12 -25 15 -35 8 -25 26 -12 26
18 0 14 -8 29 -19 35 -22 11 -31 13 -31 5z"/>
<path d="M4326 10691 c-8 -12 20 -22 39 -15 19 8 9 24 -15 24 -10 0 -21 -4
-24 -9z"/>
<path d="M4285 10660 c-7 -12 2 -30 16 -30 12 0 12 27 0 35 -5 3 -12 1 -16 -5z"/>
<path d="M4466 10613 c-11 -11 -6 -23 9 -23 8 0 15 4 15 9 0 13 -16 22 -24 14z"/>
<path d="M4320 10600 c0 -5 11 -10 25 -10 14 0 25 5 25 10 0 6 -11 10 -25 10
-14 0 -25 -4 -25 -10z"/>
<path d="M5596 10602 c-5 -8 37 -52 49 -52 12 0 3 28 -13 43 -21 19 -28 21
-36 9z"/>
<path d="M5550 10535 c0 -7 -8 -19 -17 -25 -17 -11 -17 -11 0 -6 10 3 23 6 28
6 5 0 9 9 9 20 0 11 -4 20 -10 20 -5 0 -10 -7 -10 -15z"/>
<path d="M4170 10415 c1 -26 2 -28 11 -12 8 14 8 22 0 30 -8 8 -11 3 -11 -18z"/>
<path d="M8230 8007 c-29 -14 -38 -42 -39 -118 -1 -37 -6 -61 -16 -69 -23 -19
-19 -26 25 -44 22 -9 58 -27 80 -41 22 -14 55 -25 73 -25 18 0 42 -7 53 -15
10 -8 27 -15 36 -15 30 0 13 88 -23 122 -16 15 -30 37 -30 50 -8 138 -6 134
-55 154 -41 17 -71 18 -104 1z m170 -221 c29 -56 -14 -73 -76 -31 -21 14 -48
28 -61 31 -46 12 -21 24 50 24 68 0 75 -2 87 -24z"/>
<path d="M7956 7178 c-10 -57 -24 -128 -32 -159 -8 -30 -14 -69 -14 -86 0 -16
-4 -43 -10 -59 -5 -16 -14 -74 -19 -129 -5 -55 -14 -122 -21 -150 -21 -94 -29
-140 -50 -285 -12 -80 -27 -179 -35 -220 -23 -125 -43 -249 -60 -375 -9 -66
-22 -156 -30 -200 -25 -141 -44 -257 -60 -385 -9 -69 -23 -159 -30 -200 -29
-161 -45 -260 -60 -390 -9 -74 -20 -151 -25 -170 -5 -19 -11 -57 -15 -85 -3
-27 -12 -88 -20 -135 -14 -86 -31 -205 -45 -316 -4 -34 -10 -65 -13 -70 -8
-14 -47 -248 -47 -286 0 -36 -25 -191 -41 -248 -21 -78 -19 -83 36 -92 35 -5
53 -3 61 5 14 15 34 117 34 173 0 24 7 79 14 121 24 127 44 251 62 378 9 66
27 183 40 260 13 77 33 205 44 285 11 80 26 186 35 235 27 161 44 277 65 430
11 83 29 198 39 257 11 59 25 152 31 205 11 91 37 248 61 368 5 28 16 106 24
175 8 69 22 161 30 205 9 44 21 109 26 145 6 36 15 81 20 100 5 19 14 78 19
130 12 124 28 223 46 284 8 26 14 64 14 83 0 19 5 53 10 76 13 55 28 198 22
215 -2 7 -22 12 -46 12 l-42 0 -18 -102z"/>
</g>
</svg>
